<svg width="112" height="102" viewBox="0 0 112 102" fill="none" xmlns="http://www.w3.org/2000/svg">
  <path
    d="M75.6573 10.6806C70.8697 11.1653 62.6374 11.7141 51.4235 12.7447C30.6371 14.6551 13.3925 27.2866 6.85876 32.2679C3.41834 34.8909 2.24556 39.4484 1.42942 44.918C-0.354358 56.8726 3.53392 64.0206 10.9519 75.2312C19.6965 88.4468 31.6613 93.5156 40.9921 97.6066C54.4883 103.524 71.4202 99.3933 81.4357 96.0284C96.3567 91.0155 101.413 82.1772 106.131 76.1602C110.401 70.7142 110.653 63.2311 110.868 50.6754C111.068 39.0926 101.381 23.1505 92.3369 11.2418C86.1588 3.10683 79.587 2.25438 73.3939 1.03348C62.7421 0.796999 57.0769 1.7663 48.5941 5.36843C42.0783 8.42786 31.0736 13.9876 19.7354 19.7158"
    stroke="white" strokeWidth="2" strokeLinecap="round" strokeLinejoin="round" />
</svg>
